<?xml version="1.0" standalone="no"?>
<!DOCTYPE svg PUBLIC "-//W3C//DTD SVG 20010904//EN"
 "http://www.w3.org/TR/2001/REC-SVG-20010904/DTD/svg10.dtd">
<svg version="1.0" xmlns="http://www.w3.org/2000/svg"
 width="512.000000pt" height="512.000000pt" viewBox="0 0 512.000000 512.000000"
 preserveAspectRatio="xMidYMid meet">

<g transform="translate(0.000000,512.000000) scale(0.100000,-0.100000)"
fill="#000000" stroke="none">
<path d="M2343 4459 c-289 -34 -580 -142 -833 -311 -279 -186 -489 -422 -640
-721 -327 -650 -262 -1414 170 -1997 75 -100 216 -248 320 -335 601 -501 1484
-571 2163 -171 288 169 545 432 706 721 340 611 314 1368 -66 1955 -356 550
-960 875 -1611 869 -75 -1 -169 -5 -209 -10z m-1122 -1684 c116 -78 215 -137
235 -141 65 -12 101 5 305 142 214 144 218 145 267 101 24 -22 28 -56 12 -88
-6 -10 -66 -56 -133 -101 -67 -45 -139 -94 -160 -109 l-38 -28 133 -90 c187
-128 208 -146 208 -182 0 -37 -40 -79 -75 -79 -17 0 -95 46 -223 133 l-197
132 -65 0 -65 0 -197 -132 c-126 -85 -207 -133 -223 -133 -35 0 -75 42 -75 79
0 37 26 59 202 176 75 50 137 92 137 95 1 3 -69 53 -155 110 -86 58 -163 114
-170 125 -34 47 5 117 68 124 5 1 98 -60 209 -134z m1863 114 c31 -24 36 -81
10 -117 -15 -21 -20 -22 -200 -22 l-184 0 0 -252 c0 -245 -1 -252 -22 -275
-30 -32 -81 -31 -113 2 l-25 24 0 251 0 250 -179 0 c-150 0 -182 3 -195 16
-38 38 -30 109 14 131 19 10 128 13 446 13 411 0 422 0 448 -21z m1051 -4 c29
-28 33 -79 9 -113 l-15 -22 -376 0 c-336 0 -378 -2 -395 -17 -22 -20 -23 -61
-1 -85 15 -17 40 -18 360 -18 281 0 349 -3 372 -14 106 -55 143 -223 74 -334
-52 -83 -44 -82 -495 -82 l-397 0 -21 27 c-16 21 -20 36 -16 62 11 68 -4 66
415 69 410 3 404 2 404 57 0 56 4 55 -368 55 -338 0 -342 0 -386 23 -113 60
-136 260 -41 361 52 55 55 55 470 56 l383 0 24 -25z"/>
</g>
</svg>
